<?xml version="1.0" standalone="no"?>
<!DOCTYPE svg PUBLIC "-//W3C//DTD SVG 20010904//EN"
 "http://www.w3.org/TR/2001/REC-SVG-20010904/DTD/svg10.dtd">
<svg version="1.0" xmlns="http://www.w3.org/2000/svg"
 width="512.000000pt" height="512.000000pt" viewBox="0 0 512.000000 512.000000"
 preserveAspectRatio="xMidYMid meet">

<g transform="translate(0.000000,512.000000) scale(0.100000,-0.100000)"
fill="#000000" stroke="none">
<path d="M2905 4940 c-49 -10 -116 -28 -147 -39 -86 -30 -225 -105 -298 -160
-36 -27 -545 -530 -1131 -1118 -1033 -1034 -1068 -1070 -1103 -1143 -54 -110
-73 -220 -58 -325 14 -93 41 -168 86 -237 50 -74 1593 -1620 1664 -1666 181
-117 421 -117 605 0 44 28 371 349 1128 1106 922 923 1074 1079 1124 1155 69
106 124 229 156 352 l24 90 0 785 0 785 -27 68 c-55 138 -151 245 -271 306
-125 62 -108 61 -922 60 -678 -1 -748 -2 -830 -19z m1592 -382 c22 -15 51 -44
64 -65 l24 -38 0 -720 c0 -718 0 -720 -23 -798 -28 -97 -66 -174 -125 -252
-25 -33 -508 -522 -1074 -1087 -724 -723 -1039 -1032 -1065 -1043 -46 -19
-108 -19 -151 -1 -39 16 -1577 1554 -1594 1594 -19 42 -16 118 6 160 28 54
2101 2121 2171 2165 92 58 186 91 310 111 14 2 338 3 721 2 l695 -1 41 -27z"/>
<path d="M3456 4165 c-254 -70 -435 -326 -413 -584 12 -134 71 -263 163 -355
219 -219 571 -220 789 -1 115 115 166 235 166 397 1 151 -48 273 -156 387 -72
76 -163 130 -261 156 -71 18 -220 18 -288 0z m219 -374 c125 -56 152 -209 54
-303 -57 -55 -146 -67 -215 -30 -31 16 -83 79 -90 108 -4 14 -4 49 -2 79 10
124 138 198 253 146z"/>
</g>
</svg>
