<?xml version="1.0" standalone="no"?>
<!DOCTYPE svg PUBLIC "-//W3C//DTD SVG 20010904//EN"
 "http://www.w3.org/TR/2001/REC-SVG-20010904/DTD/svg10.dtd">
<svg version="1.0" xmlns="http://www.w3.org/2000/svg"
 width="512.000000pt" height="512.000000pt" viewBox="0 0 512.000000 512.000000"
 preserveAspectRatio="xMidYMid meet">

<g transform="translate(0.000000,512.000000) scale(0.100000,-0.100000)"
fill="#000000" stroke="none">
<path d="M2420 5114 c-200 -26 -408 -102 -565 -207 -83 -56 -108 -77 -203
-170 -172 -170 -294 -396 -348 -647 -26 -119 -26 -381 0 -500 55 -257 169
-466 355 -651 187 -188 396 -301 656 -355 123 -26 375 -26 495 0 513 110 895
493 1006 1006 26 119 26 381 0 500 -111 514 -493 896 -1006 1006 -73 15 -320
27 -390 18z m275 -649 c287 -60 505 -329 505 -625 0 -297 -218 -565 -510 -626
-277 -58 -575 85 -699 337 -94 191 -94 387 0 579 126 255 420 395 704 335z"/>
<path d="M2300 2110 c-357 -65 -658 -220 -914 -469 -331 -322 -505 -712 -531
-1191 -11 -191 13 -276 102 -362 60 -59 124 -83 218 -83 67 0 89 4 137 28 62
31 116 84 149 149 19 36 24 68 31 200 9 173 26 273 65 382 57 160 128 271 252
399 138 142 288 232 486 293 83 26 103 28 265 28 153 1 186 -2 260 -22 413
-113 715 -438 790 -851 6 -35 15 -136 19 -225 6 -137 11 -167 30 -204 33 -65
87 -118 149 -149 76 -38 191 -40 267 -5 101 46 167 134 187 250 26 151 -16
485 -87 697 -116 348 -372 676 -691 885 -162 107 -381 196 -589 240 -148 32
-450 37 -595 10z"/>
</g>
</svg>
